<?xml version="1.0" encoding="UTF-8" standalone="no"?>
<!DOCTYPE svg PUBLIC "-//W3C//DTD SVG 1.1//EN" "http://www.w3.org/Graphics/SVG/1.1/DTD/svg11.dtd">
<svg width="100%" height="100%" viewBox="0 0 1236 413" version="1.1" xmlns="http://www.w3.org/2000/svg" xmlns:xlink="http://www.w3.org/1999/xlink" xml:space="preserve" xmlns:serif="http://www.serif.com/" style="fill-rule:evenodd;clip-rule:evenodd;stroke-linejoin:round;stroke-miterlimit:2;">
    <g transform="matrix(1,0,0,1,-1323.74,0)">
        <g transform="matrix(1,0,0,1,-363.957,-1738.55)">
            <g transform="matrix(0.575182,0,4.48864e-17,0.575182,1035.53,-2010.66)">
                <g id="path5" transform="matrix(4.16667,0,0,4.16667,1133.86,6518.31)">
                    <path d="M269.9,78.3L287.2,1.4L316.8,1.4L334.1,78.3L318.5,78.3L315.4,64.4L288.5,64.4L285.4,78.3L269.9,78.3ZM299.3,14.3L291.5,50.8L312.5,50.8L304.7,14.3L299.3,14.3Z" style="fill:rgb(239,62,63);fill-rule:nonzero;"/>
                </g>
                <g id="path7" transform="matrix(4.16667,0,0,4.16667,1133.86,6518.31)">
                    <path d="M333.4,15.2L333.4,1.4L390,1.4L390,15.2L369.6,15.2L369.6,78.3L354,78.3L354,15.2L333.4,15.2Z" style="fill:rgb(239,62,63);fill-rule:nonzero;"/>
                </g>
                <g id="path9" transform="matrix(4.16667,0,0,4.16667,1133.86,6518.31)">
                    <path d="M389.2,78.3L406.5,1.4L436.1,1.4L453.4,78.3L437.8,78.3L434.7,64.4L407.8,64.4L404.7,78.3L389.2,78.3ZM418.6,14.3L410.8,50.8L431.8,50.8L424,14.3L418.6,14.3Z" style="fill:rgb(239,62,63);fill-rule:nonzero;"/>
                </g>
                <g id="path11" transform="matrix(4.16667,0,0,4.16667,1133.86,6518.31)">
                    <path d="M262.6,21.7C261.7,17.4 260.1,13.6 257.7,10.4C255.3,7.2 252,4.9 247.7,3.5C243.4,2.1 237.9,1.4 231.3,1.4L221.1,1.4L221.1,15L231.3,15C235.1,15 238.1,15.4 240.3,16.2C242.5,17 244.2,18.4 245.3,20.6C246.4,22.7 247.1,25.1 247.5,27.6C247.8,30.2 248,33.6 248,37.8C248,42.1 247.9,45.4 247.8,47.8C247.3,53.9 245.9,58.1 243.7,60.5C241.1,63.4 237,64.8 231.4,64.8L221.2,64.8L221.2,78.4L231.4,78.4C238.2,78.4 243.8,77.6 248.1,76C252.5,74.4 255.8,71.8 258.1,68.2C260.4,64.6 262,60.5 262.8,56C263.6,51.4 264,45.7 264,38.7C263.9,31.6 263.5,26 262.6,21.7Z" style="fill:rgb(239,62,63);fill-rule:nonzero;"/>
                </g>
                <g id="path15" transform="matrix(4.16667,0,0,4.16667,1133.86,6518.31)">
                    <path d="M56.6,70.1C51.8,76.5 43.6,79.7 31.9,79.7C20.2,79.7 12,76.5 7.2,70.1C2.4,63.7 0,53.7 0,40.2C0,26.7 2.4,16.5 7.2,9.9C12,3.3 20.2,0 31.9,0C43.6,0 51.8,3.3 56.6,9.9C61.4,16.5 63.8,26.6 63.8,40.2C63.8,53.8 61.4,63.7 56.6,70.1ZM19.4,60.1C21.6,64.1 25.8,66 31.9,66C38,66 42.2,64 44.4,60.1C46.6,56.1 47.7,49.5 47.7,40.2C47.7,30.9 46.6,24.1 44.3,19.9C42,15.7 37.9,13.6 31.9,13.6C25.9,13.6 21.7,15.7 19.5,19.9C17.2,24.1 16.1,30.9 16.1,40.2C16.1,49.5 17.2,56.2 19.4,60.1Z" style="fill:white;fill-rule:nonzero;"/>
                </g>
                <g id="path17" transform="matrix(4.16667,0,0,4.16667,1133.86,6518.31)">
                    <path d="M77.2,78.3L77.2,1.4L103.6,1.4L122.2,64.8L123.3,64.8L123.3,1.4L138.9,1.4L138.9,78.3L113.2,78.3L93.9,14.9L92.8,14.9L92.8,78.3L77.2,78.3Z" style="fill:white;fill-rule:nonzero;"/>
                </g>
                <g>
                    <g id="rect19" transform="matrix(4.16667,0,0,4.16667,1133.86,6518.31)">
                        <rect x="155.6" y="1.4" width="49.8" height="13.6" style="fill:white;"/>
                    </g>
                    <g id="rect21" transform="matrix(4.16667,0,0,4.16667,1133.86,6518.31)">
                        <rect x="155.6" y="33" width="49.8" height="13.6" style="fill:white;"/>
                    </g>
                    <g id="rect23" transform="matrix(4.16667,0,0,4.16667,1133.86,6518.31)">
                        <rect x="155.6" y="64.7" width="49.8" height="13.6" style="fill:white;"/>
                    </g>
                </g>
            </g>
            <g transform="matrix(0.105784,0,0,0.0387596,2157.6,1958.68)">
                <g transform="matrix(1,0,0,1,-106.156,0)">
                    <path d="M2555.45,3348.85L2209.7,3348.85L2209.7,4966.51L1850.95,4966.51L1850.95,141.9L2537.25,141.9C2953.2,141.9 3161.17,671.661 3161.17,1731.18C3161.17,2360.27 3074.51,2823.82 2901.2,3121.81L3153.37,4966.51L2760.82,4966.51L2555.45,3348.85ZM2209.7,2511.63L2542.45,2511.63C2627.38,2511.63 2690.63,2440.68 2732.23,2298.78C2773.82,2156.88 2794.62,1970.05 2794.62,1738.28C2794.62,1506.51 2772.09,1322.04 2727.03,1184.87C2683.7,1047.7 2620.44,979.112 2537.25,979.112L2209.7,979.112L2209.7,2511.63Z" style="fill:white;fill-rule:nonzero;"/>
                </g>
                <g transform="matrix(1,0,0,1,110.337,0)">
                    <rect x="3462.73" y="141.9" width="358.751" height="4824.61" style="fill:white;fill-rule:nonzero;"/>
                </g>
                <g transform="matrix(1,0,0,1,305.068,0)">
                    <path d="M4856.14,4115.11L4739.15,4115.11L4432.4,141.9L4055.45,141.9L4466.19,4966.51L5129.1,4966.51L5539.85,141.9L5162.9,141.9L4856.14,4115.11Z" style="fill:white;fill-rule:nonzero;"/>
                </g>
                <g transform="matrix(1,0,0,1,320.022,0)">
                    <path d="M6917.66,4966.51L6917.66,4115.11L6132.57,4115.11L6132.57,2958.62L6761.68,2958.62L6761.68,2121.41L6132.57,2121.41L6132.57,993.302L6917.66,993.302L6917.66,141.9L5773.81,141.9L5773.81,4966.51L6917.66,4966.51Z" style="fill:white;fill-rule:nonzero;"/>
                </g>
                <g id="path111" serif:id="path11" transform="matrix(22.6556,0,1.76801e-15,61.8321,-4442.09,87.1019)">
                    <path d="M262.6,21.7C261.7,17.4 260.1,13.6 257.7,10.4C255.3,7.2 252,4.9 247.7,3.5C243.4,2.1 237.9,1.4 231.3,1.4L221.1,1.4L221.1,15L231.3,15C235.1,15 238.1,15.4 240.3,16.2C242.5,17 244.2,18.4 245.3,20.6C246.4,22.7 247.1,25.1 247.5,27.6C247.8,30.2 248,33.6 248,37.8C248,42.1 247.9,45.4 247.8,47.8C247.3,53.9 245.9,58.1 243.7,60.5C241.1,63.4 237,64.8 231.4,64.8L221.2,64.8L221.2,78.4L231.4,78.4C238.2,78.4 243.8,77.6 248.1,76C252.5,74.4 255.8,71.8 258.1,68.2C260.4,64.6 262,60.5 262.8,56C263.6,51.4 264,45.7 264,38.7C263.9,31.6 263.5,26 262.6,21.7Z" style="fill:white;fill-rule:nonzero;"/>
                </g>
            </g>
        </g>
    </g>
</svg>
