<?xml version="1.0" encoding="UTF-8" standalone="no"?>
<!DOCTYPE svg PUBLIC "-//W3C//DTD SVG 1.1//EN" "http://www.w3.org/Graphics/SVG/1.1/DTD/svg11.dtd">
<svg width="100%" height="100%" viewBox="0 0 1266 424" version="1.1" xmlns="http://www.w3.org/2000/svg" xmlns:xlink="http://www.w3.org/1999/xlink" xml:space="preserve" xmlns:serif="http://www.serif.com/" style="fill-rule:evenodd;clip-rule:evenodd;stroke-linejoin:round;stroke-miterlimit:2;">
    <g transform="matrix(1,0,0,1,-720.499,-3902.39)">
        <g>
            <g>
                <g transform="matrix(1.96158,0,0,0.974953,-1222.32,1574.83)">
                    <path d="M1029.97,2585.93C1022.68,2585.93 1016.51,2583.96 1011.47,2580.01C1006.51,2576.06 1002.45,2570.14 999.271,2562.24C996.187,2554.15 993.944,2543.91 992.542,2531.49C991.14,2519.08 990.439,2504.42 990.439,2487.49C990.439,2470.57 991.14,2455.9 992.542,2443.49C993.944,2430.89 996.187,2420.45 999.271,2412.18C1002.45,2403.72 1006.51,2397.51 1011.47,2393.56C1016.51,2389.43 1022.68,2387.36 1029.97,2387.36C1037.26,2387.36 1043.38,2389.43 1048.34,2393.56C1053.39,2397.51 1057.45,2403.72 1060.54,2412.18C1063.71,2420.45 1066,2430.89 1067.4,2443.49C1068.81,2455.9 1069.51,2470.57 1069.51,2487.49C1069.51,2501.97 1068.95,2515.32 1067.83,2527.55C1066.8,2539.58 1064.79,2549.92 1061.8,2558.57C1058.9,2567.22 1054.88,2573.99 1049.74,2578.88C1044.69,2583.58 1038.11,2585.93 1029.97,2585.93ZM1014.55,2537.14C1017.26,2547.1 1022.4,2552.09 1029.97,2552.09C1033.81,2552.09 1036.94,2550.96 1039.37,2548.7C1041.89,2546.26 1043.9,2542.49 1045.39,2537.42C1046.98,2532.15 1048.06,2525.48 1048.62,2517.39C1049.27,2509.12 1049.6,2499.15 1049.6,2487.49C1049.6,2475.83 1049.27,2465.87 1048.62,2457.59C1047.96,2449.32 1046.89,2442.45 1045.39,2437C1043.9,2431.55 1041.89,2427.6 1039.37,2425.16C1036.84,2422.52 1033.71,2421.21 1029.97,2421.21C1026.24,2421.21 1023.1,2422.52 1020.58,2425.16C1018.06,2427.6 1016.05,2431.55 1014.55,2437C1013.06,2442.45 1011.98,2449.32 1011.33,2457.59C1010.67,2465.87 1010.35,2475.83 1010.35,2487.49C1010.35,2510.62 1011.75,2527.17 1014.55,2537.14Z" style="fill-rule:nonzero;"/>
                </g>
                <g transform="matrix(1.96158,0,0,0.974953,-1222.32,1574.83)">
                    <path d="M1105.4,2582.55L1105.4,2424.59L1106.8,2424.59L1130.63,2582.55L1162.46,2582.55L1162.46,2390.74L1143.11,2390.74L1143.11,2548.7L1141.71,2548.7L1118.72,2390.74L1086.05,2390.74L1086.05,2582.55L1105.4,2582.55Z" style="fill-rule:nonzero;"/>
                </g>
                <g>
                    <g transform="matrix(1.96158,0,0,0.974953,-1222.32,1574.83)">
                        <path d="M1183.2,2424.59L1244.89,2424.59L1244.89,2390.74L1183.2,2390.74C1183.2,2390.74 1183.2,2424.91 1183.2,2424.59Z" style="fill-rule:nonzero;"/>
                    </g>
                    <g transform="matrix(1.96158,0,0,0.974953,-1222.32,1728.83)">
                        <path d="M1183.2,2424.59L1244.89,2424.59L1244.89,2390.74L1183.2,2390.74C1183.2,2390.74 1183.2,2424.91 1183.2,2424.59Z" style="fill-rule:nonzero;"/>
                    </g>
                    <g transform="matrix(1.96158,0,0,0.974953,-1222.32,1574.83)">
                        <path d="M1183.2,2502.72L1244.89,2502.72L1244.89,2469.44L1183.2,2469.44" style="fill-rule:nonzero;"/>
                    </g>
                </g>
                <g transform="matrix(1.96158,0,0,0.974953,-1222.32,1574.83)">
                    <path d="M1260.87,2548.7L1273.63,2548.7C1280.64,2548.7 1285.59,2545.5 1288.49,2539.11C1291.48,2532.53 1293.3,2521.62 1293.96,2506.39C1294.05,2503.38 1294.1,2499.81 1294.1,2495.67C1294.19,2491.53 1294.24,2486.74 1294.24,2481.29C1294.24,2470.57 1294.05,2462.11 1293.68,2455.9C1293.3,2449.51 1292.41,2443.68 1291.01,2438.41C1289.61,2433.15 1287.56,2429.57 1284.85,2427.69C1282.13,2425.63 1278.4,2424.59 1273.63,2424.59L1260.87,2424.59L1260.87,2390.74L1273.63,2390.74C1282.13,2390.74 1289,2392.62 1294.24,2396.39C1299.57,2400.15 1303.68,2405.88 1306.58,2413.59C1309.57,2421.11 1311.58,2430.7 1312.6,2442.36C1313.63,2454.02 1314.14,2467.75 1314.14,2483.54C1314.14,2499.15 1313.68,2513.16 1312.74,2525.57C1311.81,2537.79 1309.89,2548.14 1307,2556.6C1304.19,2565.06 1300.13,2571.55 1294.8,2576.06C1289.47,2580.39 1282.41,2582.55 1273.63,2582.55L1260.87,2582.55L1260.87,2548.7Z" style="fill:rgb(239,62,63);fill-rule:nonzero;"/>
                </g>
                <g transform="matrix(1.96158,0,0,0.974953,-1222.32,1574.83)">
                    <path d="M1342.32,2582.55L1346.11,2547.85L1379.48,2547.85L1383.26,2582.55L1402.61,2582.55L1381.16,2390.74L1344.43,2390.74L1322.98,2582.55L1342.32,2582.55ZM1366.16,2422.9L1375.83,2514.01L1349.75,2514.01L1359.43,2422.9L1366.16,2422.9Z" style="fill:rgb(239,62,63);fill-rule:nonzero;"/>
                </g>
                <g transform="matrix(1.96158,0,0,0.974953,-1222.32,1574.83)">
                    <path d="M1432.33,2425.16L1432.33,2582.55L1451.67,2582.55L1451.67,2425.16L1476.91,2425.16L1476.91,2390.74L1406.81,2390.74L1406.81,2425.16L1432.33,2425.16Z" style="fill:rgb(239,62,63);fill-rule:nonzero;"/>
                </g>
                <g transform="matrix(1.96158,0,0,0.974953,-1222.32,1574.83)">
                    <path d="M1500.46,2582.55L1504.25,2547.85L1537.61,2547.85L1541.4,2582.55L1560.75,2582.55L1539.3,2390.74L1502.57,2390.74L1481.12,2582.55L1500.46,2582.55ZM1524.3,2422.9L1533.97,2514.01L1507.89,2514.01L1517.57,2422.9L1524.3,2422.9Z" style="fill:rgb(239,62,63);fill-rule:nonzero;"/>
                </g>
            </g>
            <g>
                <g transform="matrix(1.96158,0,0,0.974953,-1222.32,1808.5)">
                    <path d="M1260.87,2548.7L1273.63,2548.7C1280.64,2548.7 1285.59,2545.5 1288.49,2539.11C1291.48,2532.53 1293.3,2521.62 1293.96,2506.39C1294.05,2503.38 1294.1,2499.81 1294.1,2495.67C1294.19,2491.53 1294.24,2486.74 1294.24,2481.29C1294.24,2470.57 1294.05,2462.11 1293.68,2455.9C1293.3,2449.51 1292.41,2443.68 1291.01,2438.41C1289.61,2433.15 1287.56,2429.57 1284.85,2427.69C1282.13,2425.63 1278.4,2424.59 1273.63,2424.59L1260.87,2424.59L1260.87,2390.74L1273.63,2390.74C1282.13,2390.74 1289,2392.62 1294.24,2396.39C1299.57,2400.15 1303.68,2405.88 1306.58,2413.59C1309.57,2421.11 1311.58,2430.7 1312.6,2442.36C1313.63,2454.02 1314.14,2467.75 1314.14,2483.54C1314.14,2499.15 1313.68,2513.16 1312.74,2525.57C1311.81,2537.79 1309.89,2548.14 1307,2556.6C1304.19,2565.06 1300.13,2571.55 1294.8,2576.06C1289.47,2580.39 1282.41,2582.55 1273.63,2582.55L1260.87,2582.55L1260.87,2548.7Z" style="fill-rule:nonzero;"/>
                </g>
                <g transform="matrix(1.96158,0,0,0.974953,-744.924,1808.5)">
                    <path d="M1122.08,2518.24L1103.43,2518.24L1103.43,2582.55L1084.09,2582.55L1084.09,2390.74L1121.1,2390.74C1143.53,2390.74 1154.75,2411.8 1154.75,2453.93C1154.75,2478.94 1150.07,2497.36 1140.73,2509.21L1154.33,2582.55L1133.16,2582.55L1122.08,2518.24ZM1103.43,2484.95L1121.38,2484.95C1125.96,2484.95 1129.37,2482.13 1131.61,2476.49C1133.86,2470.85 1134.98,2463.42 1134.98,2454.21C1134.98,2444.99 1133.76,2437.66 1131.33,2432.21C1129,2426.75 1125.59,2424.03 1121.1,2424.03L1103.43,2424.03L1103.43,2484.95Z" style="fill-rule:nonzero;"/>
                </g>
                <g transform="matrix(1.96158,0,0,0.974953,-709.999,1808.5)">
                    <rect x="1171.01" y="2390.74" width="19.347" height="191.804" style="fill-rule:nonzero;"/>
                </g>
                <g transform="matrix(1.96158,0,0,0.974953,-677.136,1808.5)">
                    <path d="M1246.15,2548.7L1239.84,2548.7L1223.3,2390.74L1202.97,2390.74L1225.12,2582.55L1260.87,2582.55L1283.02,2390.74L1262.69,2390.74L1246.15,2548.7Z" style="fill-rule:nonzero;"/>
                </g>
                <g transform="matrix(1.96158,0,0,0.974953,-676.724,1808.5)">
                    <path d="M1357.33,2582.55L1357.33,2548.7L1314.99,2548.7L1314.99,2502.72L1348.91,2502.72L1348.91,2469.44L1314.99,2469.44L1314.99,2424.59L1357.33,2424.59L1357.33,2390.74L1295.64,2390.74L1295.64,2582.55L1357.33,2582.55Z" style="fill-rule:nonzero;"/>
                </g>
            </g>
        </g>
    </g>
</svg>
