<?xml version="1.0" encoding="UTF-8" standalone="no"?>
<!DOCTYPE svg PUBLIC "-//W3C//DTD SVG 1.1//EN" "http://www.w3.org/Graphics/SVG/1.1/DTD/svg11.dtd">
<svg width="100%" height="100%" viewBox="0 0 256 256" version="1.1" xmlns="http://www.w3.org/2000/svg" xmlns:xlink="http://www.w3.org/1999/xlink" xml:space="preserve" xmlns:serif="http://www.serif.com/" style="fill-rule:evenodd;clip-rule:evenodd;stroke-linejoin:round;stroke-miterlimit:2;">
    <g transform="matrix(2.24812,0,0,2.24812,-337.504,38.4123)">
        <path d="M262.6,21.7C261.7,17.4 260.1,13.6 257.7,10.4C255.3,7.2 252,4.9 247.7,3.5C243.4,2.1 237.9,1.4 231.3,1.4L221.1,1.4L221.1,15L231.3,15C235.1,15 238.1,15.4 240.3,16.2C242.5,17 244.2,18.4 245.3,20.6C246.4,22.7 247.1,25.1 247.5,27.6C247.8,30.2 248,33.6 248,37.8C248,42.1 247.9,45.4 247.8,47.8C247.3,53.9 245.9,58.1 243.7,60.5C241.1,63.4 237,64.8 231.4,64.8L221.2,64.8L221.2,78.4L231.4,78.4C238.2,78.4 243.8,77.6 248.1,76C252.5,74.4 255.8,71.8 258.1,68.2C260.4,64.6 262,60.5 262.8,56C263.6,51.4 264,45.7 264,38.7C263.9,31.6 263.5,26 262.6,21.7Z" style="fill:rgb(239,63,63);fill-rule:nonzero;"/>
    </g>
    <g transform="matrix(2.24812,0,0,2.24812,-1.15463e-14,38.4123)">
        <path d="M56.6,70.1C51.8,76.5 43.6,79.7 31.9,79.7C20.2,79.7 12,76.5 7.2,70.1C2.4,63.7 0,53.7 0,40.2C0,26.7 2.4,16.5 7.2,9.9C12,3.3 20.2,0 31.9,0C43.6,0 51.8,3.3 56.6,9.9C61.4,16.5 63.8,26.6 63.8,40.2C63.8,53.8 61.4,63.7 56.6,70.1ZM19.4,60.1C21.6,64.1 25.8,66 31.9,66C38,66 42.2,64 44.4,60.1C46.6,56.1 47.7,49.5 47.7,40.2C47.7,30.9 46.6,24.1 44.3,19.9C42,15.7 37.9,13.6 31.9,13.6C25.9,13.6 21.7,15.7 19.5,19.9C17.2,24.1 16.1,30.9 16.1,40.2C16.1,49.5 17.2,56.2 19.4,60.1Z" style="fill:white;fill-rule:nonzero;"/>
    </g>
</svg>
